<svg width="64" height="64" viewBox="0 0 64 64" fill="none" xmlns="http://www.w3.org/2000/svg" role="img" aria-label="MultiTrading">
  <defs>
    <linearGradient id="mt-bg" x1="8" y1="6" x2="56" y2="58" gradientUnits="userSpaceOnUse">
      <stop stop-color="#12243F"/>
      <stop offset="0.52" stop-color="#0B172A"/>
      <stop offset="1" stop-color="#0A2C32"/>
    </linearGradient>
    <linearGradient id="mt-ring" x1="8" y1="5" x2="58" y2="55" gradientUnits="userSpaceOnUse">
      <stop stop-color="#66E7FF"/>
      <stop offset="0.48" stop-color="#5B6CFF"/>
      <stop offset="1" stop-color="#20F2A9"/>
    </linearGradient>
    <linearGradient id="mt-line" x1="14" y1="42" x2="50" y2="20" gradientUnits="userSpaceOnUse">
      <stop stop-color="#7DD3FC"/>
      <stop offset="0.45" stop-color="#5B6CFF"/>
      <stop offset="1" stop-color="#34D399"/>
    </linearGradient>
    <filter id="mt-glow" x="5" y="8" width="54" height="45" filterUnits="userSpaceOnUse" color-interpolation-filters="sRGB">
      <feFlood flood-opacity="0" result="BackgroundImageFix"/>
      <feColorMatrix in="SourceAlpha" type="matrix" values="0 0 0 0 0 0 0 0 0 0 0 0 0 0 0 0 0 0 127 0" result="hardAlpha"/>
      <feOffset dy="2"/>
      <feGaussianBlur stdDeviation="3"/>
      <feComposite in2="hardAlpha" operator="out"/>
      <feColorMatrix type="matrix" values="0 0 0 0 0.243 0 0 0 0 0.859 0 0 0 0 1 0 0 0 0.38 0"/>
      <feBlend mode="normal" in2="BackgroundImageFix" result="effect1_dropShadow_1_1"/>
      <feBlend mode="normal" in="SourceGraphic" in2="effect1_dropShadow_1_1" result="shape"/>
    </filter>
  </defs>
  <rect x="4" y="4" width="56" height="56" rx="15" fill="url(#mt-bg)"/>
  <rect x="5" y="5" width="54" height="54" rx="14" stroke="url(#mt-ring)" stroke-width="2"/>
  <g opacity="0.42" stroke="#94A3B8" stroke-width="2" stroke-linecap="round">
    <path d="M18 46V22"/>
    <path d="M28 46V17"/>
    <path d="M38 46V27"/>
    <path d="M48 46V15"/>
    <path d="M15 46H51"/>
  </g>
  <g stroke="#D8FCFF" stroke-width="2.4" stroke-linecap="round">
    <path d="M15 30H21"/>
    <path d="M25 25H31"/>
    <path d="M35 34H41"/>
    <path d="M45 23H51"/>
  </g>
  <g filter="url(#mt-glow)">
    <path d="M15 39L24.5 31L32.5 35L47 22" stroke="url(#mt-line)" stroke-width="4.2" stroke-linecap="round" stroke-linejoin="round"/>
    <path d="M47 22L48.4 29.3L41.2 26.9" stroke="#8AFBE2" stroke-width="3.2" stroke-linecap="round" stroke-linejoin="round"/>
  </g>
  <circle cx="24.5" cy="31" r="2.3" fill="#D8FCFF"/>
  <circle cx="32.5" cy="35" r="2.3" fill="#D8FCFF"/>
</svg>
